<svg width="200" height="200" viewBox="0 0 200 200" role="img" aria-labelledby="title desc" xmlns="http://www.w3.org/2000/svg">
  <title id="title">Dionysys</title>
  <desc id="desc">Adaptive UI decision loop mark</desc>
  <rect width="200" height="200" rx="36" fill="#0c0e0d"/>
  <path d="M54 68h54c19 0 34 15 34 34s-15 34-34 34H54V68z" fill="#f4f7f1"/>
  <path d="M78 92h28c6 0 10 4 10 10s-4 10-10 10H78V92z" fill="#0c0e0d"/>
  <path d="M135 48l28 28-28 28-12-12 8-8H96V68h35l-8-8 12-12z" fill="#68d8bf"/>
  <path d="M65 152l-28-28 28-28 12 12-8 8h35v16H69l8 8-12 12z" fill="#f2b84b"/>
  <circle cx="142" cy="142" r="14" fill="#8bd17c"/>
</svg>
